<svg xmlns="http://www.w3.org/2000/svg" width="895" height="301" viewBox="0 0 895 301">
  <style>
    <![CDATA[@keyframes animateGradRight{0%{stop-color: #D73664}50%{stop-color: #9E1080}100%{stop-color: #D73664}}@keyframes animateGradLeft{0%{stop-color: #9E1080}50%{stop-color: #D73664}100%{stop-color: #9E1080}}]]>
  </style>
  <defs>
    <linearGradient id="linearGradient-1" x1="0%" x2="56.7011141%" y1="50%" y2="50%">
      <stop style="animation:animateGradLeft 5s linear infinite" class="gradStopLeft" offset="60%"/>
      <stop style="animation:animateGradRight 5s linear infinite" class="gradStopRight" offset="100%"/>
    </linearGradient>
  </defs>
    <g id="Artboard-11" fill="url(#linearGradient-1)" transform="translate(-11 -39)">
      <path d="M72.32 160l-24.48-44.96h-9.28V160H11.68V46.72h43.2c5.4400272 0 10.7466408.5599944 15.92 1.68 5.1733592 1.1200056 9.8133128 3.01332 13.92 5.68 4.1066872 2.66668 7.3866544 6.1866448 9.84 10.56 2.4533456 4.3733552 3.68 9.8133008 3.68 16.32 0 7.6800384-2.0799792 14.1333072-6.24 19.36-4.1600208 5.226693-9.9199632 8.959989-17.28 11.2l29.6 48.48h-32zM71.2 81.44c0-2.66668-.5599944-4.8266584-1.68-6.48-1.1200056-1.6533416-2.5599912-2.9333288-4.32-3.84-1.7600088-.9066712-3.7333224-1.5199984-5.92-1.84-2.1866776-.3200016-4.2933232-.48-6.32-.48H38.4v26.4h12.96c2.2400112 0 4.5333216-.1866648 6.88-.56 2.3466784-.3733352 4.4799904-1.0399952 6.4-2 1.9200096-.9600048 3.4933272-2.3466576 4.72-4.16 1.2266728-1.8133424 1.84-4.1599856 1.84-7.04zm73.6-26.56c0 2.0266768-.399996 3.9199912-1.2 5.68-.800004 1.7600088-1.86666 3.2799936-3.2 4.56-1.33334 1.2800064-2.933324 2.2933296-4.8 3.04-1.866676.7466704-3.813323 1.12-5.84 1.12-4.266688 0-7.839986-1.4133192-10.72-4.24-2.880014-2.8266808-4.32-6.2133136-4.32-10.16 0-1.9200096.37333-3.7599912 1.12-5.52.74667-1.7600088 1.813326-3.2799936 3.2-4.56 1.386674-1.2800064 2.986658-2.319996 4.8-3.12 1.813342-.800004 3.786656-1.2 5.92-1.2 2.026677 0 3.973324.3733296 5.84 1.12 1.866676.7466704 3.46666 1.7599936 4.8 3.04 1.33334 1.2800064 2.399996 2.7999912 3.2 4.56.800004 1.7600088 1.2 3.6533232 1.2 5.68zM116.64 160V80.32h26.24V160h-26.24zm131.52-7.52c0 7.786706-1.119989 14.559971-3.36 20.32-2.240011 5.760029-5.386646 10.533314-9.44 14.32-4.053354 3.786686-8.986638 6.613324-14.8 8.48-5.813362 1.866676-12.239965 2.8-19.28 2.8-7.040035 0-14.26663-1.066656-21.68-3.2-7.41337-2.133344-13.839973-5.226646-19.28-9.28l13.12-18.72c3.840019 3.41335 8.079977 5.946658 12.72 7.6 4.640023 1.653342 9.199978 2.48 13.68 2.48 7.680038 0 13.359982-2.026646 17.04-6.08 3.680018-4.053354 5.52-9.439966 5.52-16.16v-4.8h-.48c-2.453346 3.200016-5.759979 5.75999-9.92 7.68-4.160021 1.92001-8.90664 2.88-14.24 2.88-6.08003 0-11.466643-1.093322-16.16-3.28-4.693357-2.186678-8.66665-5.146648-11.92-8.88-3.25335-3.733352-5.733325-8.079975-7.44-13.04-1.706675-4.960025-2.56-10.213306-2.56-15.76 0-5.546694.853325-10.826642 2.56-15.84 1.706675-5.0133584 4.18665-9.4399808 7.44-13.28 3.25335-3.8400192 7.226643-6.9066552 11.92-9.2 4.693357-2.2933448 10.026637-3.44 16-3.44 5.013358 0 9.81331 1.0133232 14.4 3.04 4.58669 2.0266768 8.266653 5.173312 11.04 9.44h.32V80.32h24.8v72.16zm-24.96-32.8c0-2.66668-.453329-5.226654-1.36-7.68-.906671-2.453346-2.213325-4.613324-3.92-6.48-1.706675-1.866676-3.733322-3.333328-6.08-4.4-2.346678-1.066672-5.013318-1.6-8-1.6s-5.626655.533328-7.92 1.6c-2.293345 1.066672-4.239992 2.506658-5.84 4.32-1.600008 1.813342-2.826662 3.946654-3.68 6.4-.853338 2.453346-1.28 5.066653-1.28 7.84 0 2.66668.426662 5.226654 1.28 7.68s2.079992 4.613324 3.68 6.48c1.600008 1.866676 3.546655 3.359994 5.84 4.48 2.293345 1.120006 4.933318 1.68 7.92 1.68s5.679988-.559994 8.08-1.68c2.400012-1.120006 4.426658-2.586658 6.08-4.4 1.653342-1.813342 2.933329-3.946654 3.84-6.4.906671-2.453346 1.36-5.066653 1.36-7.84zM321.44 160v-43.2c0-2.240011-.159998-4.373323-.48-6.4-.320002-2.026677-.933329-3.813326-1.84-5.36-.906671-1.546674-2.106659-2.773329-3.6-3.68-1.493341-.906671-3.413322-1.36-5.76-1.36-4.58669 0-8.106654 1.62665-10.56 4.88s-3.68 7.279976-3.68 12.08V160h-26.24V39.04h26.24V90.4h.32c1.813342-3.200016 4.693314-6.0533208 8.64-8.56 3.946686-2.5066792 8.693306-3.76 14.24-3.76 5.440027 0 9.999982.9599904 13.68 2.88 3.680018 1.9200096 6.666655 4.3999848 8.96 7.44 2.293345 3.0400152 3.946662 6.5333136 4.96 10.48 1.013338 3.946686 1.52 7.893314 1.52 11.84V160h-26.4zm74.72-60v30.4c0 3.733352.719993 6.533324 2.16 8.4s4.026648 2.8 7.76 2.8c1.280006 0 2.639993-.106666 4.08-.32 1.440007-.213334 2.639995-.533331 3.6-.96l.32 19.2c-1.813342.640003-4.106653 1.199998-6.88 1.68-2.773347.480002-5.546653.72-8.32.72-5.33336 0-9.813315-.66666-13.44-2s-6.533322-3.253321-8.72-5.76c-2.186678-2.506679-3.759995-5.493316-4.72-8.96-.960005-3.466684-1.44-7.333312-1.44-11.6V100h-12.8V80.32h12.64V59.36h25.76v20.96h18.72V100h-18.72zm32.48 60V46.72h27.52V160h-27.52zm101.76 0v-43.52c0-2.240011-.186665-4.373323-.56-6.4-.373335-2.026677-.986662-3.813326-1.84-5.36-.853338-1.546674-2.053326-2.773329-3.6-3.68-1.546674-.906671-3.493322-1.36-5.84-1.36s-4.399991.453329-6.16 1.36c-1.760009.906671-3.226661 2.159992-4.4 3.76-1.173339 1.600008-2.05333 3.43999-2.64 5.52-.58667 2.08001-.88 4.239989-.88 6.48V160h-26.4V80.32h25.44v11.04h.32c.960005-1.7066752 2.213326-3.3866584 3.76-5.04 1.546674-1.6533416 3.35999-3.0666608 5.44-4.24 2.08001-1.1733392 4.346654-2.1333296 6.8-2.88 2.453346-.7466704 5.066653-1.12 7.84-1.12 5.33336 0 9.866648.9599904 13.6 2.88 3.733352 1.9200096 6.746655 4.3999848 9.04 7.44 2.293345 3.0400152 3.946662 6.5333136 4.96 10.48 1.013338 3.946686 1.52 7.893314 1.52 11.84V160h-26.4zm106.56 0v-10.4h-.32c-2.560013 4.053354-6.21331 7.173322-10.96 9.36-4.74669 2.186678-9.78664 3.28-15.12 3.28-5.973363 0-11.306643-1.173322-16-3.52-4.693357-2.346678-8.66665-5.466647-11.92-9.36-3.25335-3.893353-5.733325-8.399974-7.44-13.52-1.706675-5.120026-2.56-10.453306-2.56-16 0-5.546694.879991-10.853308 2.64-15.92 1.760009-5.066692 4.26665-9.5199808 7.52-13.36 3.25335-3.8400192 7.199977-6.8799888 11.84-9.12 4.640023-2.2400112 9.839971-3.36 15.6-3.36 5.866696 0 10.826646 1.1199888 14.88 3.36 4.053354 2.2400112 7.199989 4.69332 9.44 7.36h.32V39.04h26.24V160h-24.16zm-.96-40c0-2.560013-.453329-5.066654-1.36-7.52-.906671-2.453346-2.186658-4.63999-3.84-6.56-1.653342-1.92001-3.653322-3.466661-6-4.64-2.346678-1.173339-5.013318-1.76-8-1.76-3.093349 0-5.813322.586661-8.16 1.76s-4.319992 2.693324-5.92 4.56c-1.600008 1.866676-2.799996 4.026654-3.6 6.48-.800004 2.453346-1.2 4.959987-1.2 7.52 0 2.560013.399996 5.093321 1.2 7.6.800004 2.506679 1.999992 4.71999 3.6 6.64 1.600008 1.92001 3.573322 3.466661 5.92 4.64 2.346678 1.173339 5.066651 1.76 8.16 1.76 2.986682 0 5.653322-.586661 8-1.76s4.346658-2.71999 6-4.64c1.653342-1.92001 2.933329-4.106654 3.84-6.56.906671-2.453346 1.36-4.959987 1.36-7.52zm100.8-8.96c0-4.160021-1.306654-7.733318-3.92-10.72-2.613346-2.9866816-6.533307-4.48-11.76-4.48-2.560013 0-4.906656.399996-7.04 1.2-2.133344.800004-3.999992 1.8933264-5.6 3.28-1.600008 1.386674-2.879995 3.013324-3.84 4.88-.960005 1.866676-1.493333 3.813323-1.6 5.84h33.76zm24.16 10.08v3.2c0 1.066672-.053333 2.079995-.16 3.04h-57.76c.213334 2.240011.879994 4.266658 2 6.08 1.120006 1.813342 2.559991 3.38666 4.32 4.72 1.760009 1.33334 3.733322 2.37333 5.92 3.12s4.453322 1.12 6.8 1.12c4.160021 0 7.679986-.773326 10.56-2.32 2.880014-1.546674 5.226658-3.546654 7.04-6l18.24 11.52c-3.733352 5.440027-8.666636 9.626652-14.8 12.56-6.133364 2.933348-13.253293 4.4-21.36 4.4-5.973363 0-11.62664-.933324-16.96-2.8-5.33336-1.866676-9.99998-4.586649-14-8.16-4.00002-3.573351-7.146655-7.973307-9.44-13.2-2.293345-5.226693-3.44-11.199966-3.44-17.92 0-6.506699 1.119989-12.399974 3.36-17.68 2.240011-5.2800264 5.279981-9.7599816 9.12-13.44 3.840019-3.6800184 8.373307-6.5333232 13.6-8.56 5.226693-2.0266768 10.87997-3.04 16.96-3.04 5.866696 0 11.253309.9866568 16.16 2.96s9.119982 4.826648 12.64 8.56c3.520018 3.733352 6.266657 8.26664 8.24 13.6 1.973343 5.33336 2.96 11.413299 2.96 18.24zM879.04 160v-43.52c0-2.240011-.159998-4.39999-.48-6.48-.320002-2.08001-.906662-3.866659-1.76-5.36-.853338-1.493341-1.999993-2.693329-3.44-3.6-1.440007-.906671-3.333322-1.36-5.68-1.36-2.240011 0-4.186658.479995-5.84 1.44-1.653342.960005-3.039994 2.239992-4.16 3.84-1.120006 1.600008-1.946664 3.43999-2.48 5.52-.533336 2.08001-.8 4.239989-.8 6.48V160h-26.24v-45.44c0-4.58669-.906658-8.21332-2.72-10.88-1.813342-2.66668-4.693314-4-8.64-4-4.160021 0-7.386655 1.653317-9.68 4.96-2.293345 3.306683-3.44 7.359976-3.44 12.16V160h-26.4V80.32h25.44v11.04h.32c.960005-1.7066752 2.159993-3.359992 3.6-4.96 1.440007-1.600008 3.173323-3.0133272 5.2-4.24 2.026677-1.2266728 4.293321-2.2133296 6.8-2.96 2.506679-.7466704 5.253318-1.12 8.24-1.12 5.760029 0 10.63998 1.1733216 14.64 3.52 4.00002 2.3466784 7.119989 5.7066448 9.36 10.08 2.66668-4.1600208 6.079979-7.4666544 10.24-9.92 4.160021-2.4533456 9.226637-3.68 15.2-3.68 5.440027 0 9.999982.9866568 13.68 2.96 3.680018 1.9733432 6.639989 4.5333176 8.88 7.68 2.240011 3.1466824 3.866662 6.6666472 4.88 10.56 1.013338 3.893353 1.52 7.706648 1.52 11.44V160h-26.24z"/>
      <path d="M363.68 243.36c0 9.813382-1.599984 18.266631-4.8 25.36-3.200016 7.093369-7.626638 12.959977-13.28 17.6-5.653362 4.640023-12.293295 8.079989-19.92 10.32-7.626705 2.240011-15.81329 3.36-24.56 3.36h-32.16V186.72h32.16c8.74671 0 16.933295 1.093322 24.56 3.28 7.626705 2.186678 14.266638 5.599977 19.92 10.24 5.653362 4.640023 10.079984 10.533298 13.28 17.68 3.200016 7.146702 4.8 15.626618 4.8 25.44zm-91.04-53.44V296.8h27.68c8.320042 0 16.133297-1.03999 23.44-3.12 7.306703-2.08001 13.62664-5.279978 18.96-9.6 5.33336-4.320022 9.546651-9.839966 12.64-16.56 3.093349-6.720034 4.64-14.773286 4.64-24.16s-1.546651-17.466633-4.64-24.24c-3.093349-6.773367-7.30664-12.319978-12.64-16.64-5.33336-4.320022-11.653297-7.493323-18.96-9.52-7.306703-2.026677-15.119958-3.04-23.44-3.04h-27.68zm116 72.48c0 4.480022.66666 8.906645 2 13.28s3.359986 8.293316 6.08 11.76c2.720014 3.466684 6.159979 6.266656 10.32 8.4s9.066638 3.2 14.72 3.2c5.760029 0 10.879978-1.146655 15.36-3.44s8.373317-5.626645 11.68-10l2.56 2.24c-3.626685 4.693357-7.866642 8.266654-12.72 10.72-4.853358 2.453346-10.479968 3.68-16.88 3.68-5.440027 0-10.399978-.986657-14.88-2.96-4.480022-1.973343-8.34665-4.719982-11.6-8.24-3.25335-3.520018-5.759991-7.733309-7.52-12.64-1.760009-4.906691-2.64-10.239971-2.64-16 0-5.546694.906658-10.666643 2.72-15.36 1.813342-4.693357 4.293318-8.74665 7.44-12.16 3.146682-3.41335 6.853312-6.053324 11.12-7.92 4.266688-1.866676 8.853309-2.8 13.76-2.8 5.760029 0 10.773312 1.013323 15.04 3.04 4.266688 2.026677 7.813319 4.693317 10.64 8 2.826681 3.306683 4.933326 7.066646 6.32 11.28 1.386674 4.213354 2.08 8.506645 2.08 12.88v3.04h-65.6zm62.24-3.04c-.106667-4.800024-.933326-9.173314-2.48-13.12-1.546674-3.946686-3.65332-7.333319-6.32-10.16-2.66668-2.826681-5.866648-5.013326-9.6-6.56-3.733352-1.546674-7.89331-2.32-12.48-2.32-5.546694 0-10.293314 1.146655-14.24 3.44-3.946686 2.293345-7.173321 5.119983-9.68 8.48s-4.346661 6.879982-5.52 10.56c-1.173339 3.680018-1.76 6.906653-1.76 9.68h62.08zm71.04 21.44c0 3.306683-.639994 6.266654-1.92 8.88-1.280006 2.613346-3.013322 4.826658-5.2 6.64-2.186678 1.813342-4.719986 3.199995-7.6 4.16-2.880014.960005-5.973317 1.44-9.28 1.44-5.440027 0-10.373311-1.03999-14.8-3.12-4.426689-2.08001-8.079986-5.146646-10.96-9.2l2.88-1.92c5.33336 7.466704 13.013283 11.2 23.04 11.2 2.346678 0 4.719988-.37333 7.12-1.12 2.400012-.74667 4.586657-1.866659 6.56-3.36 1.973343-1.493341 3.573327-3.359989 4.8-5.6 1.226673-2.240011 1.84-4.799986 1.84-7.68 0-3.41335-.773326-6.186656-2.32-8.32-1.546674-2.133344-3.493322-3.839994-5.84-5.12-2.346678-1.280006-4.933319-2.319996-7.76-3.12-2.826681-.800004-5.466654-1.519997-7.92-2.16-2.66668-.74667-5.173322-1.573329-7.52-2.48s-4.399991-2.079993-6.16-3.52c-1.760009-1.440007-3.146662-3.226656-4.16-5.36s-1.52-4.799984-1.52-8c0-3.200016.639994-5.973322 1.92-8.32 1.280006-2.346678 2.986656-4.293326 5.12-5.84 2.133344-1.546674 4.559986-2.719996 7.28-3.52 2.720014-.800004 5.466653-1.2 8.24-1.2 10.026717 0 17.546642 3.573298 22.56 10.72l-3.04 1.76c-2.453346-3.200016-5.226651-5.573326-8.32-7.12-3.093349-1.546674-6.826645-2.32-11.2-2.32-2.026677 0-4.159989.266664-6.4.8s-4.293324 1.413327-6.16 2.64c-1.866676 1.226673-3.413327 2.853323-4.64 4.88-1.226673 2.026677-1.84 4.479986-1.84 7.36 0 3.200016.506662 5.75999 1.52 7.68 1.013338 1.92001 2.426658 3.466661 4.24 4.64 1.813342 1.173339 3.999987 2.159996 6.56 2.96 2.560013.800004 5.386651 1.57333 8.48 2.32 2.880014.74667 5.679986 1.626662 8.4 2.64s5.11999 2.266659 7.2 3.76c2.08001 1.493341 3.733327 3.359989 4.96 5.6 1.226673 2.240011 1.84 5.013317 1.84 8.32zm26.72-82.08c-.960005 0-1.81333-.37333-2.56-1.12-.74667-.74667-1.12-1.759994-1.12-3.04 0-1.173339.37333-2.13333 1.12-2.88.74667-.74667 1.599995-1.12 2.56-1.12s1.81333.37333 2.56 1.12c.74667.74667 1.12 1.706661 1.12 2.88 0 1.280006-.399996 2.29333-1.2 3.04-.800004.74667-1.626662 1.12-2.48 1.12zM546.88 300v-73.6h3.52V300h-3.52zm100.16-19.84h-.48c-1.386674 3.626685-3.253322 6.799986-5.6 9.52s-4.959986 5.013324-7.84 6.88-5.999983 3.279995-9.36 4.24c-3.360017.960005-6.799982 1.44-10.32 1.44-5.33336 0-10.266644-.986657-14.8-2.96-4.533356-1.973343-8.42665-4.693316-11.68-8.16-3.25335-3.466684-5.786658-7.57331-7.6-12.32-1.813342-4.74669-2.72-9.893306-2.72-15.44 0-5.546694.906658-10.719976 2.72-15.52 1.813342-4.800024 4.34665-8.959982 7.6-12.48 3.25335-3.520018 7.146644-6.266657 11.68-8.24 4.533356-1.973343 9.46664-2.96 14.8-2.96 7.040035 0 13.51997 1.866648 19.44 5.6 5.92003 3.733352 10.479984 9.279963 13.68 16.64h.48v-20h3.52v69.44c0 5.866696-.613327 11.46664-1.84 16.8-1.226673 5.33336-3.253319 10.026646-6.08 14.08-2.826681 4.053354-6.559977 7.279988-11.2 9.68-4.640023 2.400012-10.373299 3.6-17.2 3.6-6.933368 0-13.119973-1.199988-18.56-3.6-5.440027-2.400012-10.079981-5.786645-13.92-10.16l2.4-2.4c4.053354 4.58669 8.666641 7.91999 13.84 10 5.173359 2.08001 10.586638 3.12 16.24 3.12 6.400032 0 11.733312-1.173322 16-3.52s7.626654-5.439981 10.08-9.28c2.453346-3.840019 4.186662-8.239975 5.2-13.2s1.52-10.10664 1.52-15.44v-15.36zm-66.88-16.8c0 4.800024.773326 9.386645 2.32 13.76 1.546674 4.373355 3.759986 8.213317 6.64 11.52 2.880014 3.306683 6.373313 5.91999 10.48 7.84 4.106687 1.92001 8.719974 2.88 13.84 2.88 4.906691 0 9.413313-.95999 13.52-2.88 4.106687-1.92001 7.653318-4.533317 10.64-7.84 2.986682-3.306683 5.333325-7.146645 7.04-11.52 1.706675-4.373355 2.56-9.013309 2.56-13.92s-.853325-9.546645-2.56-13.92c-1.706675-4.373355-4.053318-8.18665-7.04-11.44-2.986682-3.25335-6.533313-5.83999-10.64-7.76-4.106687-1.92001-8.613309-2.88-13.52-2.88-5.120026 0-9.733313.986657-13.84 2.96-4.106687 1.973343-7.599986 4.613317-10.48 7.92-2.880014 3.306683-5.093326 7.146645-6.64 11.52-1.546674 4.373355-2.32 8.959976-2.32 13.76zm107.2-17.6c1.066672-3.41335 2.613323-6.45332 4.64-9.12 2.026677-2.66668 4.319987-4.933324 6.88-6.8 2.560013-1.866676 5.333318-3.279995 8.32-4.24 2.986682-.960005 6.079984-1.44 9.28-1.44 5.120026 0 9.38665.906658 12.8 2.72 3.41335 1.813342 6.133323 4.213318 8.16 7.2 2.026677 2.986682 3.466662 6.346648 4.32 10.08.853338 3.733352 1.28 7.519981 1.28 11.36V300h-3.52v-44.16c0-2.986682-.319997-6.18665-.96-9.6-.640003-3.41335-1.839991-6.506653-3.6-9.28-1.760009-2.773347-4.133318-5.093324-7.12-6.96s-6.77331-2.8-11.36-2.8c-4.053354 0-7.866649.826658-11.44 2.48-3.573351 1.653342-6.666654 4.026651-9.28 7.12-2.613346 3.093349-4.693326 6.853311-6.24 11.28-1.546674 4.426689-2.32 9.466638-2.32 15.12V300h-3.52v-55.04c0-1.173339-.026666-2.613325-.08-4.32-.053334-1.706675-.106666-3.439991-.16-5.2-.053334-1.760009-.133333-3.439992-.24-5.04-.106667-1.600008-.213333-2.933328-.32-4h3.52c.106667 1.066672.186666 2.399992.24 4 .053334 1.600008.106666 3.333324.16 5.2.053334 1.866676.106666 3.679991.16 5.44.053334 1.760009.08 3.333326.08 4.72h.32z"/>
    </g>
</svg>